<?xml version="1.0" standalone="no"?>
<!DOCTYPE svg PUBLIC "-//W3C//DTD SVG 20010904//EN"
 "http://www.w3.org/TR/2001/REC-SVG-20010904/DTD/svg10.dtd">
<svg version="1.0" xmlns="http://www.w3.org/2000/svg"
 width="700.000000pt" height="700.000000pt" viewBox="0 0 700.000000 700.000000"
 preserveAspectRatio="xMidYMid meet">
<metadata>
Created by potrace 1.11, written by Peter Selinger 2001-2013
</metadata>
<g transform="translate(0.000000,700.000000) scale(0.100000,-0.100000)"
fill="#000000" stroke="none">
<path d="M3215 6663 c-384 -30 -590 -63 -832 -134 -228 -66 -394 -151 -504
-256 -87 -83 -124 -155 -124 -241 0 -59 2 -66 33 -93 69 -61 163 -24 181 72
11 62 40 101 113 150 202 138 608 244 1067 279 174 13 540 13 712 0 455 -36
854 -141 1058 -279 l44 -29 -201 -4 c-185 -3 -203 -5 -229 -24 -56 -42 -60
-126 -8 -171 26 -23 29 -23 340 -23 l315 0 32 29 33 29 0 322 0 322 -33 29
c-37 33 -93 39 -130 13 -42 -29 -52 -65 -52 -188 l0 -115 -58 35 c-229 136
-655 239 -1137 274 -127 9 -521 11 -620 3z"/>
<path d="M650 5454 c-203 -44 -377 -219 -419 -422 -8 -37 -11 -497 -11 -1531
0 -1440 1 -1480 20 -1555 46 -182 165 -311 350 -382 l75 -29 1085 0 1085 0 75
29 c97 37 168 85 229 153 64 71 97 134 121 229 19 75 20 115 20 1325 l0 1247
-39 49 c-70 86 -875 882 -904 892 -19 8 -289 11 -825 10 -645 0 -809 -3 -862
-15z m1540 -399 c0 -106 5 -218 11 -247 40 -191 204 -363 394 -413 44 -11 112
-15 262 -15 l203 0 -2 -1197 -3 -1198 -24 -50 c-32 -63 -92 -124 -156 -155
l-50 -25 -1075 0 -1075 0 -50 25 c-64 31 -124 92 -156 155 l-24 50 -3 1495
c-2 1352 -1 1500 14 1545 32 99 104 171 207 206 48 17 106 18 790 19 l737 0 0
-195z m710 -459 c0 -16 -231 0 -284 20 -64 25 -140 94 -174 158 -24 46 -27 63
-30 186 l-3 135 245 -245 c135 -135 246 -249 246 -254z"/>
<path d="M909 4561 c-24 -24 -29 -38 -29 -76 0 -38 5 -52 29 -76 l29 -29 256
0 c162 0 264 4 279 11 31 14 57 59 57 99 0 23 -10 42 -34 66 l-34 34 -262 0
-262 0 -29 -29z"/>
<path d="M944 3926 c-82 -36 -88 -149 -10 -191 26 -14 55 -16 174 -13 l144 3
29 33 c49 55 31 140 -36 168 -46 19 -257 19 -301 0z"/>
<path d="M1620 3933 c-41 -13 -61 -29 -76 -61 -23 -48 -6 -105 39 -132 31 -19
54 -20 495 -20 415 0 467 2 492 17 50 29 66 105 34 152 -35 50 -51 51 -526 50
-244 0 -450 -3 -458 -6z"/>
<path d="M928 3263 c-77 -48 -59 -167 30 -193 25 -8 184 -10 487 -8 496 3 480
1 511 67 23 47 5 104 -39 131 -31 19 -53 20 -497 20 -415 -1 -468 -2 -492 -17z"/>
<path d="M2254 3270 c-33 -13 -64 -59 -64 -94 0 -48 33 -93 77 -105 56 -16
247 -14 287 3 44 18 66 52 66 99 0 31 -7 46 -34 73 l-34 34 -138 -1 c-77 0
-149 -4 -160 -9z"/>
<path d="M909 2591 c-50 -51 -36 -137 28 -170 14 -7 107 -11 272 -11 l251 0
30 28 c22 19 33 39 37 69 5 39 2 46 -30 78 l-35 35 -262 0 -262 0 -29 -29z"/>
<path d="M1788 2591 c-28 -25 -33 -36 -33 -76 0 -40 5 -51 33 -76 l32 -29 361
0 c246 0 367 4 382 11 38 19 57 51 57 97 0 35 -6 49 -29 73 l-29 29 -371 0
-371 0 -32 -29z"/>
<path d="M4150 5454 c-203 -44 -377 -219 -419 -422 -8 -37 -11 -497 -11 -1531
0 -1440 1 -1480 20 -1555 46 -182 165 -311 350 -382 l75 -29 1085 0 1085 0 75
29 c97 37 168 85 229 153 64 71 97 134 121 229 19 75 20 115 20 1325 l0 1247
-39 49 c-70 86 -875 882 -904 892 -19 8 -289 11 -825 10 -645 0 -809 -3 -862
-15z m1540 -399 c0 -106 5 -218 11 -247 40 -191 204 -363 394 -413 44 -11 112
-15 262 -15 l203 0 -2 -1197 -3 -1198 -24 -50 c-32 -63 -92 -124 -156 -155
l-50 -25 -1075 0 -1075 0 -50 25 c-64 31 -124 92 -156 155 l-24 50 -3 1495
c-2 1352 -1 1500 14 1545 32 99 104 171 207 206 48 17 106 18 790 19 l737 0 0
-195z m710 -459 c0 -16 -231 0 -284 20 -64 25 -140 94 -174 158 -24 46 -27 63
-30 186 l-3 135 245 -245 c135 -135 246 -249 246 -254z"/>
<path d="M4764 3594 c-78 -38 -77 -151 1 -189 45 -20 66 -19 106 8 63 43 63
131 0 174 -40 27 -64 28 -107 7z"/>
<path d="M5203 3596 c-34 -15 -63 -61 -63 -98 0 -42 36 -86 80 -99 56 -17 105
6 127 58 38 93 -52 180 -144 139z"/>
<path d="M5629 3587 c-40 -27 -56 -72 -43 -119 10 -35 63 -78 96 -78 33 0 84
29 98 55 30 56 9 124 -45 150 -45 20 -66 19 -106 -8z"/>
<path d="M1788 1061 l-33 -29 -3 -294 c-4 -328 0 -357 51 -388 41 -25 73 -25
114 0 41 25 53 67 53 197 l0 101 103 -53 c654 -340 2106 -353 2805 -24 226
106 346 230 367 380 12 85 -40 146 -116 136 -51 -7 -76 -29 -90 -81 -29 -107
-67 -147 -207 -219 -295 -152 -773 -239 -1317 -239 -461 0 -824 48 -1136 152
-153 50 -339 145 -339 171 0 5 93 9 206 9 l206 0 29 29 c50 51 36 137 -28 170
-15 7 -122 11 -327 11 l-306 0 -32 -29z"/>
</g>
</svg>
